<svg width="22" height="22" viewBox="0 0 22 22" fill="none" xmlns="http://www.w3.org/2000/svg">
<g id="basil:whatsapp-outline">
<path id="Vector" d="M8.14379 6.57245C8.31154 6.57704 8.49763 6.5862 8.67454 6.97854C8.79188 7.23979 8.98896 7.72104 9.15029 8.11337C9.27588 8.41862 9.37854 8.66979 9.40421 8.72112C9.46287 8.83845 9.49954 8.9732 9.42254 9.13179L9.39688 9.18495C9.34433 9.30812 9.27323 9.4225 9.18604 9.52412C9.14173 9.57555 9.09804 9.6275 9.05496 9.67995C8.97704 9.77529 8.89912 9.86879 8.83312 9.93479C8.71487 10.0521 8.59296 10.1786 8.72863 10.4133C8.86521 10.648 9.34096 11.4198 10.044 12.0422C10.5586 12.5055 11.1486 12.8775 11.7885 13.1422C11.8526 13.1697 11.9049 13.1926 11.9443 13.2119C12.1799 13.3292 12.3201 13.3109 12.4558 13.1532C12.5924 12.9946 13.0452 12.4666 13.2047 12.232C13.3587 11.9973 13.5164 12.034 13.7345 12.1146C13.9527 12.1962 15.1132 12.7655 15.3488 12.8819L15.4799 12.946C15.644 13.024 15.7549 13.078 15.8025 13.1569C15.8612 13.2568 15.8612 13.7252 15.6669 14.277C15.467 14.827 14.5055 15.355 14.07 15.3954L13.9463 15.41C13.5466 15.4577 13.0406 15.52 11.2366 14.8096C9.01279 13.9351 7.54521 11.7663 7.24912 11.3272C7.23332 11.3037 7.21712 11.2805 7.20054 11.2575L7.19504 11.2502C7.06029 11.0696 6.23438 9.96504 6.23438 8.8247C6.23438 7.73387 6.77246 7.16554 7.01721 6.90704L7.06029 6.8612C7.13951 6.77171 7.23631 6.69949 7.34465 6.64902C7.45299 6.59856 7.57056 6.57093 7.69004 6.56787C7.84862 6.56787 8.00812 6.56787 8.14379 6.57245Z" fill="#08C65B"/>
<path id="Vector_2" fill-rule="evenodd" clip-rule="evenodd" d="M2.00573 19.5534C1.98846 19.6155 1.98788 19.6811 2.00406 19.7436C2.02024 19.806 2.05261 19.8631 2.09789 19.909C2.14317 19.9549 2.19976 19.9881 2.26196 20.0052C2.32416 20.0222 2.38976 20.0226 2.45215 20.0062L6.67523 18.9025C8.0151 19.6283 9.51476 20.0086 11.0386 20.009H11.0422C16.0711 20.009 20.1704 15.9325 20.1704 10.923C20.1736 9.72812 19.9391 8.54457 19.4805 7.44123C19.0219 6.33788 18.3484 5.33679 17.4992 4.49621C16.6517 3.64855 15.6448 2.97689 14.5367 2.51988C13.4285 2.06286 12.2409 1.82953 11.0422 1.8333C6.0134 1.8333 1.91406 5.9088 1.91406 10.9184C1.91406 12.5125 2.3339 14.0781 3.13323 15.4595L2.00573 19.5534ZM4.45965 15.8244C4.50811 15.6485 4.52108 15.4646 4.49779 15.2837C4.4745 15.1027 4.41541 14.9281 4.32398 14.7702C3.64577 13.5998 3.28875 12.2711 3.28906 10.9184C3.28906 6.67421 6.76598 3.2083 11.0422 3.2083C13.1231 3.2083 15.0646 4.01221 16.5294 5.47063C17.2502 6.18347 17.8218 7.03273 18.2109 7.96885C18.5999 8.90498 18.7986 9.90922 18.7954 10.923C18.7954 15.1671 15.3185 18.634 11.0422 18.634H11.0376C9.74303 18.6333 8.46899 18.3101 7.33065 17.6935C7.02383 17.5274 6.66534 17.4841 6.32781 17.5725L3.79598 18.2334L4.45965 15.8244Z" fill="#08C65B"/>
</g>
</svg>
