<svg width="22" height="22" viewBox="0 0 22 22" fill="none" xmlns="http://www.w3.org/2000/svg">
<g id="bxl:linkedin">
<path id="Vector" d="M4.56817 6.59703C5.67587 6.59703 6.57383 5.69906 6.57383 4.59136C6.57383 3.48366 5.67587 2.58569 4.56817 2.58569C3.46047 2.58569 2.5625 3.48366 2.5625 4.59136C2.5625 5.69906 3.46047 6.59703 4.56817 6.59703Z" fill="#007AC0"/>
<path id="Vector_2" d="M8.4661 8.1168V19.2442H11.921V13.7415C11.921 12.2895 12.1942 10.8833 13.9945 10.8833C15.7701 10.8833 15.7921 12.5434 15.7921 13.8331V19.2451H19.2489V13.1429C19.2489 10.1454 18.6035 7.8418 15.1 7.8418C13.4179 7.8418 12.2904 8.76488 11.8294 9.63846H11.7826V8.1168H8.4661ZM2.83594 8.1168H6.29635V19.2442H2.83594V8.1168Z" fill="#007AC0"/>
</g>
</svg>
