<svg width="22" height="22" viewBox="0 0 22 22" fill="none" xmlns="http://www.w3.org/2000/svg">
<g id="mdi:twitter">
<path id="Vector" d="M20.5907 5.49959C19.8849 5.82043 19.1241 6.03126 18.3357 6.13209C19.1424 5.64626 19.7657 4.87626 20.0591 3.95043C19.2982 4.40876 18.4549 4.72959 17.5657 4.91293C16.8416 4.12459 15.8241 3.66626 14.6691 3.66626C12.5149 3.66626 10.7549 5.42626 10.7549 7.59876C10.7549 7.91043 10.7916 8.21293 10.8557 8.49709C7.5924 8.33209 4.68656 6.76459 2.7524 4.39043C2.41323 4.96793 2.22073 5.64626 2.22073 6.36126C2.22073 7.72709 2.90823 8.93709 3.97156 9.62459C3.32073 9.62459 2.71573 9.44126 2.18406 9.16626V9.19376C2.18406 11.1004 3.54073 12.6954 5.3374 13.0529C4.76056 13.2108 4.15498 13.2327 3.56823 13.1171C3.8172 13.8985 4.30481 14.5823 4.96249 15.0723C5.62018 15.5623 6.41489 15.8338 7.2349 15.8488C5.84489 16.9492 4.12189 17.544 2.34906 17.5354C2.0374 17.5354 1.72573 17.5171 1.41406 17.4804C3.15573 18.5988 5.2274 19.2496 7.44573 19.2496C14.6691 19.2496 18.6382 13.2546 18.6382 8.05709C18.6382 7.88293 18.6382 7.71793 18.6291 7.54376C19.3991 6.99376 20.0591 6.29709 20.5907 5.49959Z" fill="#1DA1F2"/>
</g>
</svg>
