<svg width="11" height="11" viewBox="0 0 11 11" fill="none" xmlns="http://www.w3.org/2000/svg">
<g id="subway:world" clip-path="url(#clip0_652_36993)">
<path id="Vector" d="M5.07676 1.40937C5.10254 1.40937 5.13477 1.42227 5.1627 1.46094C5.03809 1.28262 5.30234 1.35996 5.31738 1.19023C5.46777 1.07852 5.41406 1.00547 5.45703 1.00117L5.5043 0.9625C5.41191 0.996875 5.37969 1.00332 5.35391 1.00332H5.31094C5.27871 1.00332 5.225 1.00977 5.09824 1.04844C4.8082 1.06992 4.5998 1.38359 4.50098 1.39219C4.4 1.4459 4.4043 1.45664 4.42793 1.45664C4.43438 1.45664 4.44297 1.45449 4.45156 1.45449C4.46016 1.45449 4.4666 1.45234 4.47305 1.45234C4.49668 1.45234 4.49023 1.46309 4.35273 1.52754C4.38496 1.53613 4.11211 1.65645 4.10996 1.84551C4.10137 1.91855 4.13145 1.96797 4.18086 1.96797C4.22383 1.96797 4.27754 1.93574 4.33555 1.8541C4.52891 1.63066 4.93711 1.60918 5.11328 1.47383C5.00371 1.46523 5.0252 1.40937 5.07676 1.40937ZM4.09492 1.48457C4.07559 1.48457 4.10137 1.46094 4.1293 1.4373C4.15937 1.41367 4.19375 1.39004 4.19375 1.39004L4.1916 1.39219C4.30762 1.34707 4.23672 1.33633 4.29902 1.30625H4.29473C4.28184 1.30625 4.30547 1.28906 4.32695 1.26973C4.34844 1.25254 4.36777 1.2332 4.34844 1.2332C4.3377 1.2332 4.30977 1.23965 4.2625 1.25898C4.27754 1.2375 4.33555 1.22246 4.41719 1.17734C4.29902 1.21602 4.20664 1.23965 4.1959 1.23965C4.1873 1.23965 4.23672 1.22246 4.38496 1.17734C4.39141 1.17734 4.39785 1.17949 4.40215 1.17949C4.41719 1.17949 4.42363 1.1752 4.42148 1.1709C4.41934 1.1666 4.41074 1.16445 4.3957 1.16445C4.18301 1.18164 4.02402 1.31484 4.07129 1.33203C4.09922 1.32344 4.11855 1.31914 4.13145 1.31914C4.15938 1.31914 4.14648 1.34277 4.09062 1.37715C4.11641 1.4373 3.66094 1.59199 3.60938 1.64785C3.63516 1.63281 3.65234 1.62852 3.66094 1.62852C3.69531 1.62852 3.6502 1.69512 3.60508 1.72734C3.63301 1.75313 3.65449 1.76172 3.67168 1.76172C3.7168 1.76172 3.73613 1.69941 3.7748 1.68008C3.7834 1.69727 3.79199 1.70586 3.80273 1.70586C3.83926 1.70586 3.88438 1.61563 3.9209 1.56836C3.93164 1.5791 3.94453 1.5877 3.96172 1.5877C3.99609 1.5877 4.04766 1.55977 4.1293 1.48027C4.11211 1.48242 4.09922 1.48457 4.09492 1.48457ZM3.60078 1.87988C3.52344 1.92715 3.48262 1.94648 3.46543 1.94648C3.4332 1.94648 3.47617 1.88633 3.51484 1.82402C3.55352 1.76387 3.58789 1.70371 3.53848 1.70371C3.51484 1.70371 3.47187 1.7166 3.40312 1.75098C3.21621 1.87559 2.90039 2.21934 2.76074 2.21934H2.74785C2.97344 2.05391 2.90684 1.72949 3.22266 1.6457C3.53418 1.46738 3.74688 1.52324 4.02402 1.31914C3.94238 1.35996 3.82207 1.40508 3.79414 1.40508C3.77695 1.40508 3.80273 1.38359 3.91445 1.32988C3.90371 1.33203 3.89512 1.33418 3.88867 1.33418C3.81348 1.33418 4.38281 1.13008 4.41074 1.12578C4.17656 1.15801 3.79844 1.35352 3.74687 1.35352C3.74043 1.35352 3.74043 1.35137 3.74043 1.34707C3.74902 1.34063 3.74902 1.33633 3.74043 1.33633C3.7125 1.33633 3.59648 1.375 3.47832 1.41367C3.3623 1.45234 3.24414 1.49316 3.21836 1.49316C3.20977 1.49316 3.20977 1.48887 3.22266 1.48027C2.20859 2.05605 1.36211 3.02715 1.09785 4.17871C1.20742 4.43008 1.13223 4.90918 1.3127 5.04883C1.51895 5.22285 1.13652 5.72773 1.2375 6.03926C1.34062 6.60215 1.78535 6.98672 1.83262 7.5625C1.91426 7.95781 2.21289 8.44121 2.3375 8.69258C2.43203 8.78711 2.69199 9.05996 2.73711 9.05996C2.7543 9.05996 2.74355 9.01914 2.6748 8.90957C2.63184 8.78711 2.38262 8.46699 2.50293 8.46699C2.50938 8.46699 2.51582 8.46699 2.52441 8.46914C2.37617 8.31875 2.85313 8.35957 2.52012 8.15547C2.48145 8.1082 2.47285 8.09316 2.48145 8.09316C2.49219 8.09316 2.52227 8.11035 2.55664 8.12754C2.59316 8.14473 2.63613 8.16191 2.67051 8.16191C2.72422 8.16191 2.76074 8.12539 2.73926 7.99219C2.74785 7.99648 2.75645 7.99648 2.76289 7.99648C2.81875 7.99648 2.79941 7.88691 2.80371 7.77734C2.80801 7.66777 2.83594 7.5582 2.98633 7.5582C3.00352 7.5582 3.02285 7.56035 3.04219 7.5625C3.39023 7.37344 3.0873 6.85137 3.48691 6.66016C3.47187 6.22617 2.88965 6.20469 2.67051 6.02852C2.63398 6.05 2.59961 6.05645 2.56523 6.05645C2.52656 6.05645 2.49219 6.04785 2.46211 6.03711C2.43203 6.02852 2.4041 6.01777 2.38477 6.01777C2.38047 6.01777 2.37617 6.01777 2.37188 6.01992C2.7457 5.92109 2.47285 5.40117 2.16348 5.40117H2.14199C2.11836 5.17559 2.00234 5.26152 1.98945 5.07461C1.97012 5.08535 1.95078 5.08965 1.93145 5.08965C1.87988 5.08965 1.83262 5.05312 1.7918 5.01875C1.75098 4.98223 1.7166 4.94785 1.68652 4.94785C1.66289 4.94785 1.64141 4.97148 1.62207 5.04023C1.64355 4.93496 1.63711 4.90059 1.61562 4.90059C1.59414 4.90059 1.55547 4.93711 1.5125 4.97363C1.47168 5.01016 1.42441 5.04668 1.38789 5.04668H1.37715C1.12578 4.86836 1.3793 4.55254 1.24609 4.30977C1.33203 4.21738 1.36641 4.06055 1.32773 4.06055C1.3084 4.06055 1.26973 4.09922 1.20957 4.20449C1.12363 3.98535 1.35137 3.48906 1.54473 3.46113C1.55117 3.46113 1.55547 3.45898 1.56191 3.45898C1.59629 3.45898 1.63066 3.47617 1.66074 3.5127C1.67793 3.61367 1.63496 3.82637 1.65215 3.82637C1.66074 3.82637 1.67793 3.7834 1.7209 3.67168C1.77676 3.41602 2.16777 3.23125 2.20859 3.07441C2.21074 3.07656 2.21074 3.07656 2.21289 3.07656C2.25801 3.07656 2.54805 2.8209 2.6748 2.79297C2.72422 2.74355 2.75859 2.72637 2.78438 2.72637C2.8123 2.72637 2.82734 2.74785 2.83809 2.76719C2.84883 2.78867 2.85742 2.80801 2.86816 2.80801C2.87676 2.80801 2.8875 2.79512 2.90684 2.75859C2.84023 2.62754 3.01211 2.50293 2.96484 2.50293C2.94766 2.50293 2.89609 2.52012 2.79082 2.56309C2.77363 2.57168 2.76504 2.57383 2.76074 2.57383C2.74785 2.57383 2.79941 2.53945 2.87461 2.50508C2.9498 2.4707 3.04434 2.43633 3.12383 2.43633C3.1625 2.43633 3.19688 2.44492 3.22266 2.46641C3.55566 2.38691 3.37305 2.27734 3.39023 2.27734H3.39453C3.48906 2.22148 3.46113 2.01094 3.60078 1.87988ZM2.11191 2.75859C2.10762 2.75859 2.12695 2.73066 2.19141 2.65117C2.32461 2.55234 2.43203 2.48574 2.30957 2.42129C2.36328 2.39766 2.41484 2.36973 2.46426 2.33965C2.46211 2.44492 2.37402 2.70059 2.32676 2.70059C2.31602 2.70059 2.30527 2.68555 2.30098 2.65332C2.32891 2.60391 2.33105 2.58457 2.32031 2.58457C2.30312 2.58457 2.25371 2.62754 2.20645 2.67266C2.15918 2.71348 2.11621 2.75859 2.11191 2.75859ZM2.23438 2.8166C2.17637 2.8166 2.18711 2.78008 2.36543 2.74355C2.44277 2.73281 2.38262 2.73711 2.475 2.71563C2.38477 2.78867 2.28379 2.8166 2.23438 2.8166ZM5.5752 2.59961C5.60098 2.59531 5.62031 2.59531 5.63535 2.59531C5.69766 2.59531 5.66973 2.62109 5.6332 2.64687C5.59668 2.67266 5.55156 2.69844 5.57734 2.69844C5.59238 2.69844 5.6332 2.68984 5.71699 2.66621C6.14023 2.63613 5.55156 2.27734 5.64609 2.15703L5.62031 2.14844C5.44629 2.36973 5.73633 2.37402 5.5752 2.59961ZM5.39902 2.6082C5.4291 2.6082 5.46777 2.57383 5.50859 2.47715C5.56445 2.41055 5.54082 2.40195 5.48066 2.36973C5.31523 2.4127 5.33027 2.6082 5.39902 2.6082ZM6.88144 3.28926C6.875 3.28926 6.8707 3.29141 6.86641 3.29355C6.88359 3.29785 6.90078 3.30215 6.91797 3.30215C6.90078 3.29355 6.89004 3.28926 6.88144 3.28926ZM9.7668 3.82422C9.80332 3.90371 9.82266 3.93594 9.8248 3.93594C9.83984 3.93594 9.5541 3.23984 9.43594 3.11523C8.81934 2.10117 7.80527 1.32559 6.64941 1.03555H6.64727C6.61719 1.03555 6.65156 1.05059 6.69238 1.06562C6.7332 1.08066 6.78262 1.0957 6.78262 1.0957C6.78262 1.0957 6.75039 1.08496 6.65156 1.05703C6.54199 1.0248 6.43027 1.00117 6.31641 0.992578C6.29707 0.999023 6.78691 1.19238 7.11563 1.29336C7.00605 1.25898 6.89219 1.22891 6.86426 1.22891C6.84492 1.22891 6.86426 1.2418 6.94375 1.27617C6.84707 1.24824 6.80625 1.23535 6.80195 1.23535C6.79551 1.23535 6.93086 1.28047 7.05762 1.32559C7.18652 1.3707 7.30898 1.41582 7.27461 1.41582C7.26602 1.41582 7.24238 1.41152 7.20586 1.40508C7.31543 1.46523 7.3541 1.48887 7.34766 1.48887C7.33691 1.48887 7.20156 1.42441 7.06191 1.35996C6.92441 1.29551 6.78477 1.23105 6.76543 1.23105C6.75469 1.23105 6.78262 1.25254 6.87715 1.3084C7.00605 1.36426 7.13496 1.42012 7.09844 1.42012C7.08125 1.42012 7.03184 1.40938 6.93516 1.38145C7.15 1.49102 6.78262 1.44805 6.90723 1.59629C6.83848 1.53184 6.81055 1.51035 6.8041 1.51035C6.79766 1.51035 6.81484 1.53613 6.83203 1.56191C6.84922 1.5877 6.86211 1.61348 6.84707 1.61348H6.84277C6.99316 1.77676 6.7375 1.63066 6.92012 1.77676C6.78262 1.71445 6.54844 1.61133 6.65371 1.61133C6.67949 1.61133 6.72891 1.61777 6.80625 1.63496C6.6666 1.47168 6.27129 1.46523 6.2627 1.4459C6.16387 1.45234 6.16172 1.52754 6.17891 1.66504C6.17676 1.88203 5.96406 1.88633 5.99199 2.01094C5.99199 2.00879 5.99414 2.00879 5.99414 2.00879C5.99844 2.00879 6.00059 2.05176 6.01348 2.09687C6.02852 2.13984 6.0543 2.18496 6.11016 2.18496C6.14023 2.18496 6.17891 2.17207 6.22617 2.13984C6.29277 2.26016 6.35293 2.30312 6.4002 2.30312C6.47109 2.30312 6.51406 2.20645 6.50977 2.11836C6.43242 2.07539 6.33145 1.71875 6.44316 1.71875C6.46035 1.71875 6.48184 1.72734 6.50977 1.74668C6.33574 2.17422 7.19727 1.88848 6.70957 2.08398C6.81914 2.22793 6.64082 2.22148 6.69238 2.39551C6.60859 2.41914 6.51621 2.44062 6.43457 2.44062C6.31426 2.44062 6.22188 2.38906 6.23262 2.20859C6.08223 2.28809 6.38301 2.55664 6.08438 2.55664H6.06719C5.92324 2.8209 5.38398 2.73066 5.80723 3.00996C5.83086 3.13242 5.75352 3.15391 5.65469 3.15391C5.62891 3.15391 5.60098 3.15176 5.57305 3.14961C5.54512 3.14746 5.51719 3.14746 5.49141 3.14746C5.37969 3.14746 5.3002 3.17539 5.36895 3.34941C5.31953 3.52988 5.43555 3.60938 5.57734 3.60938C5.74922 3.60938 5.95977 3.49766 5.9748 3.31289C6.06719 3.17324 6.18535 3.11523 6.30781 3.11523C6.50117 3.11523 6.70527 3.26133 6.83848 3.4418C6.84922 3.45898 6.85781 3.46543 6.86211 3.46543C6.87285 3.46543 6.86211 3.42246 6.85781 3.37949C6.85352 3.34512 6.85352 3.31074 6.86641 3.3C6.6752 3.24629 6.5291 3.01426 6.59355 3.01426C6.61504 3.01426 6.66016 3.04004 6.7332 3.10879H6.74395C6.86426 3.10879 6.95879 3.20332 7.03184 3.29785C7.10703 3.39238 7.16289 3.48691 7.21231 3.48691C7.23164 3.48691 7.25098 3.46973 7.26816 3.43105C7.25957 3.41816 7.23809 3.38164 7.22734 3.34512C7.21445 3.3 7.21445 3.25488 7.27246 3.25488C7.29609 3.25488 7.32832 3.26348 7.37344 3.28066C7.51953 3.24199 7.28105 2.86172 7.47441 2.86172C7.49375 2.86172 7.51738 2.86602 7.54746 2.87461C7.54531 2.94121 7.57539 2.96484 7.60332 2.96484C7.65918 2.96484 7.71504 2.88535 7.57969 2.86172C7.63125 2.8123 7.66133 2.79297 7.68281 2.79297C7.75801 2.79297 7.69785 3.04219 7.95781 3.04219C8.0459 3.25059 7.19297 3.05723 7.46582 3.45684C7.52812 3.50195 7.60547 3.51055 7.68066 3.51055C7.7043 3.51055 7.72578 3.51055 7.74727 3.5084C7.76875 3.5084 7.79023 3.50625 7.80957 3.50625C7.94277 3.50625 8.0373 3.53848 7.9793 3.81348C7.9084 3.86504 7.82891 3.88223 7.74727 3.88223C7.67422 3.88223 7.60117 3.86934 7.53027 3.85645C7.45937 3.84355 7.39062 3.83066 7.32832 3.83066C7.23164 3.83066 7.1543 3.86289 7.10703 3.97461C6.85566 3.87148 6.52481 3.86719 6.55703 3.55566C6.11875 3.61797 5.66113 3.58574 5.33887 3.8543C5.31953 4.24746 4.64492 4.37422 4.8082 4.82109C4.6127 5.23359 5.04453 5.81152 5.48496 5.81152C5.5 5.81152 5.51719 5.81152 5.53223 5.80937C5.77285 5.80723 6.01562 5.6998 6.22832 5.6998C6.33789 5.6998 6.43672 5.72773 6.52266 5.81367C6.54199 5.81152 6.55918 5.80937 6.57422 5.80937C6.90293 5.80937 6.46895 6.33145 6.86211 6.41953C7.21875 6.78906 6.64297 7.16934 6.92441 7.52383C6.95449 7.80098 7.09199 8.03301 7.09199 8.30371C7.12852 8.30801 7.16289 8.31016 7.19941 8.31016C7.65273 8.31016 7.93633 7.91484 8.20273 7.61621C8.12109 7.16934 8.83652 7.08125 8.5916 6.58066C8.47773 6.03281 9.13086 5.7084 9.09434 5.16055C9.10078 5.0832 9.0793 5.05957 9.04707 5.05957C9.01484 5.05957 8.96758 5.0832 8.92246 5.10469C8.8752 5.12832 8.82363 5.1498 8.78281 5.1498C8.7291 5.1498 8.68828 5.11328 8.68398 4.99297C8.36816 4.69863 8.22422 4.29902 7.92988 3.97461C8.3123 4.15938 8.5293 4.57617 8.70547 4.9543C8.72051 4.95859 8.73555 4.96074 8.75273 4.96074C9.06426 4.96074 9.49824 4.21523 9.02559 4.03477C8.9998 4.10566 8.96543 4.13145 8.92461 4.13145C8.85371 4.13145 8.77207 4.04551 8.71406 3.96172C8.65605 3.87578 8.62598 3.78984 8.6582 3.78984C8.67969 3.78984 8.72695 3.82422 8.80859 3.91445C8.90098 3.97246 8.99121 3.9875 9.08574 3.9875C9.17812 3.9875 9.27266 3.97246 9.37148 3.96387C9.49609 4.01328 9.5498 4.17227 9.58848 4.17227C9.59492 4.17227 9.60352 4.16582 9.60996 4.15078C9.70879 4.38711 9.82266 4.8082 9.92578 4.92207C9.87207 4.56113 9.85918 4.17871 9.7668 3.82422ZM8.56797 3.32793C8.3252 3.26562 8.2457 2.96484 8.05449 2.79082C8.05234 2.74355 8.12324 2.75215 8.10605 2.67266C8.36387 2.75215 8.28008 2.83164 8.25644 2.84668C8.35098 3.00352 8.61523 3.11094 8.56797 3.32793ZM5.23145 1.69297C4.99727 1.76172 4.96504 1.68652 5.00586 1.83047C5.02305 1.84336 5.05527 1.84766 5.0875 1.84766C5.20137 1.8498 5.35605 1.7832 5.23145 1.69297ZM8.67109 7.61191C8.97832 7.35195 9.01699 7.04258 9.03203 6.72891C8.89453 6.99746 8.48633 7.29394 8.67109 7.61191ZM7.27246 3.42246C7.27031 3.42461 7.27031 3.42461 7.27031 3.42676C7.27246 3.43105 7.27461 3.43105 7.27461 3.43105C7.27461 3.43105 7.27461 3.42891 7.27246 3.42246ZM5.5 0C2.46211 0 0 2.46211 0 5.5C0 8.53789 2.46211 11 5.5 11C8.53789 11 11 8.53789 11 5.5C11 2.46211 8.53789 0 5.5 0ZM5.5 10.5768C2.69629 10.5768 0.423242 8.30371 0.423242 5.5C0.423242 2.69629 2.69629 0.423242 5.5 0.423242C8.30371 0.423242 10.5768 2.69629 10.5768 5.5C10.5768 8.30371 8.30371 10.5768 5.5 10.5768Z" fill="#666666"/>
</g>
<defs>
<clipPath id="clip0_652_36993">
<rect width="11" height="11" fill="white"/>
</clipPath>
</defs>
</svg>
