<svg width="44" height="44" viewBox="0 0 44 44" fill="none" xmlns="http://www.w3.org/2000/svg">
<circle cx="22" cy="22" r="22" fill="#2C1349"/>
<path d="M13.0117 21.2197V25.7097C13.0117 30.1997 14.8117 31.9997 19.3017 31.9997H24.6917C29.1817 31.9997 30.9817 30.1997 30.9817 25.7097V21.2197" stroke="#FF7231" stroke-width="1.5" stroke-linecap="round" stroke-linejoin="round"/>
<path d="M22.0005 22C23.8305 22 25.1805 20.51 25.0005 18.68L24.3405 12H19.6705L19.0005 18.68C18.8205 20.51 20.1705 22 22.0005 22Z" stroke="#FF7231" stroke-width="1.5" stroke-linecap="round" stroke-linejoin="round"/>
<path d="M28.3108 22C30.3308 22 31.8108 20.36 31.6108 18.35L31.3308 15.6C30.9708 13 29.9708 12 27.3508 12H24.3008L25.0008 19.01C25.1708 20.66 26.6608 22 28.3108 22Z" stroke="#FF7231" stroke-width="1.5" stroke-linecap="round" stroke-linejoin="round"/>
<path d="M15.6384 22C17.2884 22 18.7784 20.66 18.9384 19.01L19.1584 16.8L19.6384 12H16.5884C13.9684 12 12.9684 13 12.6084 15.6L12.3384 18.35C12.1384 20.36 13.6184 22 15.6384 22Z" stroke="#FF7231" stroke-width="1.5" stroke-linecap="round" stroke-linejoin="round"/>
<path d="M22 27C20.33 27 19.5 27.83 19.5 29.5V32H24.5V29.5C24.5 27.83 23.67 27 22 27Z" stroke="#FF7231" stroke-width="1.5" stroke-linecap="round" stroke-linejoin="round"/>
</svg>
