<svg width="23" height="23" viewBox="0 0 23 23" fill="none" xmlns="http://www.w3.org/2000/svg">
<g id="material-symbols:phone-enabled">
<path id="Vector" d="M16.4167 17C16.5833 17 16.7222 16.9444 16.8333 16.8333C16.9444 16.7222 17 16.5833 17 16.4167V14.1667C17 14.037 16.9583 13.9235 16.875 13.8261C16.7917 13.7287 16.6852 13.6663 16.5556 13.6389L14.6389 13.25C14.5093 13.2315 14.3772 13.2431 14.2428 13.285C14.1083 13.3269 13.9996 13.3893 13.9167 13.4722L12.6111 14.7778C11.9074 14.3519 11.2639 13.8472 10.6806 13.2639C10.0972 12.6806 9.61111 12.0556 9.22222 11.3889L10.5556 10.0278C10.6389 9.94444 10.6922 9.84944 10.7156 9.74278C10.7389 9.63611 10.7411 9.51815 10.7222 9.38889L10.3611 7.44444C10.3426 7.31481 10.2824 7.20833 10.1806 7.125C10.0787 7.04167 9.96296 7 9.83333 7H7.58333C7.41667 7 7.27778 7.05556 7.16667 7.16667C7.05555 7.27778 7 7.41667 7 7.58333C7 8.77778 7.2663 9.94222 7.79889 11.0767C8.33148 12.2111 9.03518 13.2157 9.91 14.0906C10.7848 14.9654 11.7894 15.6691 12.9239 16.2017C14.0583 16.7343 15.2226 17.0004 16.4167 17Z" fill="white"/>
</g>
</svg>
