<svg width="46" height="45" viewBox="0 0 46 45" fill="none" xmlns="http://www.w3.org/2000/svg">
<circle cx="22" cy="23" r="22" fill="#2C1349"/>
<path d="M22.1973 21.6056C22.1182 21.5977 22.0232 21.5977 21.9361 21.6056C20.0519 21.5422 18.5557 19.9985 18.5557 18.0985C18.5557 16.1589 20.1232 14.5835 22.0707 14.5835C24.0102 14.5835 25.5857 16.1589 25.5857 18.0985C25.5777 19.9985 24.0815 21.5422 22.1973 21.6056Z" stroke="#FF7231" stroke-width="1.5" stroke-linecap="round" stroke-linejoin="round"/>
<path d="M18.2386 24.5265C16.3228 25.809 16.3228 27.899 18.2386 29.1736C20.4157 30.6303 23.9861 30.6303 26.1632 29.1736C28.079 27.8911 28.079 25.8011 26.1632 24.5265C23.994 23.0778 20.4236 23.0778 18.2386 24.5265Z" stroke="#FF7231" stroke-width="1.5" stroke-linecap="round" stroke-linejoin="round"/>
<path d="M27.9369 16.1665C29.4727 16.1665 30.7077 17.4094 30.7077 18.9373C30.7077 20.4336 29.5202 21.6528 28.0398 21.7082C27.9765 21.7003 27.9052 21.7003 27.834 21.7082" stroke="#FF7231" stroke-width="1.5" stroke-linecap="round" stroke-linejoin="round"/>
<path d="M29.4648 28.833C30.0348 28.7143 30.5732 28.4847 31.0165 28.1443C32.2515 27.218 32.2515 25.6901 31.0165 24.7638C30.5811 24.4313 30.0507 24.2097 29.4886 24.083" stroke="#FF7231" stroke-width="1.5" stroke-linecap="round" stroke-linejoin="round"/>
<path d="M16.0055 16.1665C14.4696 16.1665 13.2346 17.4094 13.2346 18.9373C13.2346 20.4336 14.4221 21.6528 15.9026 21.7082C15.9659 21.7003 16.0371 21.7003 16.1084 21.7082" stroke="#FF7231" stroke-width="1.5" stroke-linecap="round" stroke-linejoin="round"/>
<path d="M14.4775 28.8332C13.9075 28.7144 13.3692 28.4849 12.9259 28.1444C11.6909 27.2182 11.6909 25.6903 12.9259 24.764C13.3613 24.4315 13.8917 24.2099 14.4538 24.0832" stroke="#FF7231" stroke-width="1.5" stroke-linecap="round" stroke-linejoin="round"/>
</svg>
