<svg width="40" height="40" viewBox="0 0 40 40" fill="none" xmlns="http://www.w3.org/2000/svg">
<path fill-rule="evenodd" clip-rule="evenodd" d="M34.95 6.21448L34.1275 6.08365L33.9117 5.27865L35.1525 4.94531L34.95 6.21448ZM23.9333 17.7395L23.2242 18.1761L23.2225 18.1745L23.22 18.1703L23.2117 18.157L23.1833 18.1095L23.0833 17.937C22.9667 17.7329 22.8542 17.5264 22.7458 17.3178C22.4028 16.662 22.1038 15.9842 21.8508 15.2886C21.5692 14.502 21.3275 13.6011 21.29 12.7295C21.2533 11.8611 21.415 10.9186 22.0617 10.1795C22.6425 9.51615 23.7375 8.90531 24.8883 8.37698C26.0808 7.82781 27.4842 7.30115 28.8133 6.84531C30.4598 6.28315 32.1227 5.7707 33.8 5.30865L33.8833 5.28531L33.9125 5.27698L34.1292 6.08281L34.9517 6.21365L34.9467 6.24448L34.9325 6.33281C34.8493 6.84405 34.7621 7.35462 34.6708 7.86448C34.4488 9.11831 34.2066 10.3685 33.9442 11.6145C33.6475 13.0153 33.3025 14.4836 32.9367 15.7128C32.7737 16.2748 32.5826 16.8283 32.3642 17.3711C32.1742 17.8295 31.9492 18.2745 31.6758 18.5878C31.0908 19.2561 30.18 19.4653 29.3842 19.5186C28.5542 19.5745 27.6342 19.4736 26.8067 19.327C26.0687 19.1941 25.3377 19.0245 24.6167 18.8186C24.3216 18.7355 24.0282 18.6466 23.7367 18.552L23.6842 18.5336L23.67 18.5286L23.6658 18.5278H23.6642L23.9333 17.7395ZM23.9333 17.7395L23.2242 18.1761L23.3808 18.4303L23.6642 18.5278L23.9333 17.7395ZM24.4933 17.0453C25.3468 17.3107 26.2153 17.5249 27.0942 17.687C27.8642 17.8228 28.6342 17.8995 29.2725 17.8561C29.9467 17.8111 30.285 17.6461 30.4208 17.4911C30.5075 17.3911 30.6492 17.1545 30.8242 16.7328C31.0203 16.2436 31.1919 15.7449 31.3383 15.2386C31.6858 14.072 32.02 12.6528 32.3133 11.2703C32.5949 9.93276 32.8527 8.59033 33.0867 7.24365L32.8292 7.31865C31.905 7.59115 30.6567 7.97531 29.3542 8.42198C28.0492 8.86948 26.705 9.37531 25.5842 9.89115C24.4208 10.4261 23.6358 10.912 23.3158 11.2778C23.06 11.5695 22.9283 12.0186 22.9558 12.6578C22.9825 13.2936 23.165 14.0161 23.42 14.7253C23.7111 15.5278 24.0702 16.3039 24.4933 17.0453ZM8.55251 8.31198L8.33668 9.11698L7.51334 9.24781L7.31168 7.97948L8.55251 8.31198ZM16.6208 18.5895L17.33 19.0253L17.3317 19.0236L17.3333 19.0203L17.34 19.0095L17.3642 18.9695L17.4475 18.8278C17.846 18.1319 18.1847 17.4035 18.46 16.6503C18.6917 16.0036 18.8933 15.2545 18.9242 14.5245C18.9558 13.797 18.8208 12.9853 18.2592 12.3436C17.7625 11.7753 16.8433 11.2686 15.91 10.8386C14.9342 10.3895 13.7883 9.95948 12.7058 9.58865C11.365 9.13119 10.0108 8.71405 8.64501 8.33781L8.57668 8.31865L8.55251 8.31198L8.33668 9.11698L7.51334 9.24781L7.51751 9.27281L7.52918 9.34531L7.57418 9.61698C7.79897 10.9649 8.05208 12.308 8.33334 13.6453C8.57501 14.7853 8.85668 15.9828 9.15501 16.987C9.30501 17.4886 9.46168 17.9561 9.62584 18.3503C9.78168 18.7253 9.97251 19.1078 10.2125 19.3811C10.7292 19.9728 11.5233 20.1478 12.1808 20.1911C12.8742 20.2378 13.635 20.1536 14.3142 20.0345C15.1671 19.882 16.0081 19.6692 16.8308 19.3978L16.8733 19.3836L16.8858 19.3795L16.89 19.3778L16.6208 18.5895ZM16.6208 18.5895L17.33 19.0253L17.1733 19.2803L16.89 19.3778L16.6208 18.5895ZM16.06 17.8945C16.1128 17.8 16.1745 17.6853 16.245 17.5503C16.4433 17.1686 16.69 16.6486 16.8908 16.087C17.095 15.5186 17.2383 14.9478 17.2592 14.4536C17.2808 13.9545 17.1758 13.637 17.005 13.4403C16.7692 13.172 16.1608 12.7886 15.2133 12.3528C14.31 11.937 13.2233 11.5278 12.165 11.1653C11.2431 10.8505 10.3145 10.5554 9.38001 10.2803L9.38334 10.3011C9.52501 11.1011 9.72668 12.1811 9.96418 13.3003C10.2017 14.422 10.4725 15.5695 10.7525 16.512C10.8933 16.9836 11.0317 17.3911 11.165 17.7111C11.3067 18.0503 11.4133 18.2228 11.4667 18.2845C11.535 18.362 11.7558 18.4928 12.2925 18.5286C12.7933 18.562 13.405 18.502 14.025 18.3928C14.7131 18.2693 15.3928 18.1034 16.06 17.8945ZM14.235 25.8386C14.0233 25.8503 13.92 25.8803 13.8933 25.892C13.5158 26.0628 12.3692 26.4628 11.3792 26.8003C10.8708 26.9745 10.3833 27.1378 10.0233 27.2586L10 27.267V31.7695C10.1467 31.7628 10.3042 31.757 10.465 31.7511C11.155 31.7261 11.9758 31.7011 12.3317 31.7161C13.825 31.7753 14.9467 32.1286 15.985 32.4561L16.0075 32.4636C16.9808 32.7703 17.8825 33.052 19.0633 33.1411C19.3967 33.1661 19.7208 33.1986 20.0233 33.2286H20.0275C21.1892 33.3453 21.9542 33.4036 22.5467 33.1886C23.0075 33.0211 24.695 32.2386 26.3967 31.3828C27.2383 30.9595 28.0633 30.5286 28.7192 30.1595C29.0483 29.9745 29.3275 29.8095 29.5417 29.6711C29.6478 29.6023 29.7333 29.5439 29.7983 29.4961L29.8733 29.4378L29.8967 29.4178C29.98 29.3336 30.0683 29.0403 29.925 28.7645C29.8576 28.6355 29.7461 28.535 29.6108 28.4811C29.4442 28.4086 29.1608 28.3528 28.7108 28.427C27.6958 28.5936 26.4833 29.082 25.2725 29.5745L25.2558 29.582C24.6608 29.8236 24.0642 30.0661 23.535 30.2428C23.0267 30.412 22.4625 30.5636 21.9708 30.5345C21.2958 30.4928 20.1117 30.3178 19.135 30.1595C18.5737 30.0687 18.0132 29.9737 17.4533 29.8745L17.345 29.8553L17.3067 29.8478L17.465 28.1945L21.2733 28.2403H21.2817C21.3262 28.2355 21.3702 28.2272 21.4133 28.2153C21.545 28.182 21.7708 28.0995 22.055 27.8986C22.1425 27.8361 22.2575 27.7211 22.365 27.567C22.4095 27.5025 22.4472 27.4398 22.4783 27.3786C22.0141 27.3488 21.5527 27.2836 21.0983 27.1836C20.8509 27.1298 20.6055 27.0672 20.3625 26.9961L20.3342 26.9878L15.67 25.9495L15.6258 25.942L15.4508 25.9153C15.2603 25.8873 15.0687 25.8659 14.8767 25.8511C14.6633 25.8332 14.4489 25.8291 14.235 25.8386ZM15.8333 25.1336L15.9842 24.3145L15.9992 24.317L20.7642 25.377L20.7992 25.3878L20.8058 25.3903L20.8375 25.3995L20.9692 25.437C21.085 25.4686 21.2517 25.512 21.45 25.5553C21.855 25.6428 22.3617 25.7236 22.83 25.7236C23.2992 25.7236 23.8092 25.8986 24.0842 26.397C24.3192 26.8236 24.2608 27.2853 24.1783 27.5903C24.1016 27.8599 23.9874 28.1174 23.8392 28.3553C24.0931 28.2553 24.3614 28.1475 24.6442 28.032L24.6958 28.0103C25.8442 27.5436 27.2208 26.9836 28.44 26.7828C29.8567 26.5511 30.9192 27.0595 31.405 27.9995C31.8333 28.8286 31.7383 29.922 31.0842 30.587C30.92 30.7536 30.6758 30.9228 30.4425 31.0736C30.1453 31.2617 29.843 31.4414 29.5358 31.6128C28.8483 31.9995 27.9975 32.4436 27.1442 32.8728C25.4592 33.7203 23.6842 34.5495 23.1142 34.7561C22.1258 35.1145 20.9825 35.0003 19.9667 34.8986L19.8608 34.8878C19.5534 34.8563 19.2456 34.8285 18.9375 34.8045C17.5542 34.6995 16.4942 34.3653 15.5258 34.0603L15.505 34.0536C14.4633 33.7253 13.525 33.4328 12.265 33.382C11.9883 33.3711 11.2433 33.3911 10.525 33.4178C10.1205 33.4325 9.71605 33.4489 9.31168 33.467L9.20418 33.472L8.33251 33.512V26.0653L9.06334 25.8228C9.65636 25.6257 10.2486 25.4263 10.84 25.2245C11.8767 24.8703 12.9217 24.5028 13.2067 24.3745C13.5125 24.2361 13.86 24.1911 14.1383 24.1745C14.4342 24.1578 14.7383 24.1703 15.0042 24.1903C15.3241 24.2159 15.6428 24.2556 15.9592 24.3095L15.9767 24.3128H15.9817L15.9833 24.3136H15.985L15.8333 25.1336Z" fill="black"/>
<path fill-rule="evenodd" clip-rule="evenodd" d="M29.2917 11.0339C29.3748 11.105 29.4432 11.1919 29.4928 11.2894C29.5424 11.387 29.5724 11.4933 29.5809 11.6024C29.5894 11.7115 29.5763 11.8213 29.5424 11.9253C29.5085 12.0294 29.4545 12.1257 29.3833 12.2089C26.8992 15.1072 23.8067 19.3548 22.4417 22.8073C22.4014 22.909 22.3415 23.0019 22.2653 23.0805C22.1892 23.1591 22.0983 23.2219 21.9978 23.2654C21.8974 23.3089 21.7894 23.3322 21.6799 23.3339C21.5705 23.3357 21.4618 23.3159 21.36 23.2756C21.2582 23.2353 21.1654 23.1754 21.0868 23.0992C21.0081 23.0231 20.9453 22.9322 20.9018 22.8317C20.8583 22.7313 20.835 22.6233 20.8333 22.5138C20.8316 22.4044 20.8514 22.2957 20.8917 22.1939C22.3608 18.4781 25.6008 14.0606 28.1167 11.1248C28.2606 10.957 28.4652 10.8533 28.6855 10.8364C28.9059 10.8195 29.1239 10.8909 29.2917 11.0348M12.8167 13.7073C12.7307 13.7751 12.659 13.8592 12.6056 13.9547C12.5522 14.0503 12.5181 14.1554 12.5053 14.2642C12.4926 14.3729 12.5013 14.4831 12.5312 14.5884C12.561 14.6938 12.6113 14.7922 12.6792 14.8781C14.5475 17.2489 16.5875 20.2831 17.5558 22.7998C17.639 23.0006 17.7973 23.161 17.9971 23.2468C18.1968 23.3326 18.4222 23.3369 18.6251 23.2588C18.828 23.1807 18.9923 23.0265 19.0831 22.8289C19.1738 22.6314 19.1838 22.4062 19.1108 22.2014C18.0517 19.4481 15.8875 16.2556 13.9875 13.8464C13.8508 13.6729 13.6507 13.5607 13.4313 13.5346C13.2119 13.5085 12.9903 13.5706 12.8167 13.7073Z" fill="black"/>
<path d="M5 24.167H10V35.0003H5V24.167Z" fill="black"/>
</svg>
