<svg width="37" height="37" viewBox="0 0 37 37" fill="none" xmlns="http://www.w3.org/2000/svg">
<path d="M-0.5 32.0004H34.5V34.5004H-0.5V32.0004ZM30.75 10.7504C31.0815 10.7504 31.3995 10.6187 31.6339 10.3843C31.8683 10.1499 32 9.83197 32 9.50044V5.75044C31.9999 5.49355 31.9206 5.24293 31.773 5.03269C31.6254 4.82244 31.4166 4.66279 31.175 4.57544L17.425 -0.424555C17.1504 -0.523846 16.8496 -0.523846 16.575 -0.424555L2.825 4.57544C2.58341 4.66279 2.3746 4.82244 2.22698 5.03269C2.07937 5.24293 2.00011 5.49355 2 5.75044V9.50044C2 9.83197 2.1317 10.1499 2.36612 10.3843C2.60054 10.6187 2.91848 10.7504 3.25 10.7504H4.5V27.0004H2V29.5004H32V27.0004H29.5V10.7504H30.75ZM4.5 6.62544L17 2.07544L29.5 6.62544V8.25044H4.5V6.62544ZM19.5 27.0004H14.5V10.7504H19.5V27.0004ZM7 10.7504H12V27.0004H7V10.7504ZM27 27.0004H22V10.7504H27V27.0004Z" fill="black"/>
</svg>
