<svg width="40" height="40" viewBox="0 0 40 40" fill="none" xmlns="http://www.w3.org/2000/svg">
<path d="M6.77734 20H6.01562L20 33.9843L31.4844 22.5H35.0195L20 37.5195L3.10547 20.6445C2.64974 20.1888 2.24609 19.7005 1.89453 19.1796C1.54297 18.6588 1.23698 18.0989 0.976562 17.5H5.72266L11.25 11.9921L20 20.7226L26.25 14.4921L29.2773 17.5H36.2109C36.6276 16.8359 36.9466 16.1328 37.168 15.3906C37.3893 14.6484 37.5 13.8867 37.5 13.1054C37.5 11.9726 37.2917 10.9179 36.875 9.94136C36.4583 8.9648 35.8789 8.11844 35.1367 7.4023C34.3945 6.68615 33.5352 6.11975 32.5586 5.70308C31.582 5.28641 30.5208 5.07808 29.375 5.07808C28.2812 5.07808 27.3112 5.24735 26.4648 5.58589C25.6185 5.92443 24.8372 6.38016 24.1211 6.95308C23.4049 7.526 22.7214 8.15751 22.0703 8.84761C21.4193 9.53771 20.7292 10.2604 20 11.0156C19.2969 10.3125 18.6133 9.60282 17.9492 8.88667C17.2852 8.17053 16.5951 7.526 15.8789 6.95308C15.1628 6.38016 14.375 5.91141 13.5156 5.54683C12.6562 5.18225 11.6927 4.99995 10.625 4.99995C9.50521 4.99995 8.45703 5.20829 7.48047 5.62495C6.50391 6.04162 5.64453 6.62105 4.90234 7.36323C4.16016 8.10542 3.58073 8.9648 3.16406 9.94136C2.7474 10.9179 2.53255 11.9726 2.51953 13.1054C2.51953 13.7174 2.59115 14.3489 2.73438 15H0.175781C0.110677 14.6875 0.0716146 14.375 0.0585938 14.0625C0.0455729 13.75 0.0325521 13.4375 0.0195312 13.125C0.0195312 11.6536 0.292969 10.2734 0.839844 8.98433C1.38672 7.69527 2.14193 6.56896 3.10547 5.60542C4.06901 4.64188 5.19531 3.88667 6.48438 3.3398C7.77344 2.79292 9.15365 2.51297 10.625 2.49995C11.7057 2.49995 12.6693 2.62365 13.5156 2.87105C14.362 3.11844 15.1432 3.45698 15.8594 3.88667C16.5755 4.31636 17.2656 4.8437 17.9297 5.4687C18.5938 6.0937 19.2839 6.76428 20 7.48042C20.7161 6.75126 21.3997 6.08068 22.0508 5.4687C22.7018 4.85672 23.3919 4.33589 24.1211 3.9062C24.8503 3.47652 25.638 3.13146 26.4844 2.87105C27.3307 2.61063 28.2943 2.48693 29.375 2.49995C30.8333 2.49995 32.207 2.77339 33.4961 3.32027C34.7852 3.86714 35.9049 4.62235 36.8555 5.58589C37.806 6.54943 38.5612 7.66922 39.1211 8.94527C39.681 10.2213 39.9609 11.595 39.9609 13.0664C39.9609 14.3294 39.7396 15.5533 39.2969 16.7382C38.8542 17.9231 38.2227 19.0104 37.4023 20H28.2227L26.25 18.0078L20 24.2773L11.25 15.5078L6.77734 20Z" fill="black"/>
</svg>
