<svg width="40" height="40" viewBox="0 0 40 40" fill="none" xmlns="http://www.w3.org/2000/svg">
<path d="M1.66571 30.8024L8.64857 36.6224C9.67546 37.4774 10.9695 37.9454 12.3057 37.9452H30.7143C32.0286 37.9452 33.0943 36.8795 33.0943 35.5652C33.0943 32.9367 30.9629 30.8024 28.3314 30.8024H15.5343M23.7571 2.94524C23.3783 2.94524 23.0149 3.09575 22.747 3.36366C22.4791 3.63157 22.3286 3.99493 22.3286 4.37381V8.39381H18.3114C17.9325 8.39381 17.5692 8.54432 17.3013 8.81223C17.0334 9.08014 16.8829 9.4435 16.8829 9.82238V14.4652C16.8829 14.8441 17.0334 15.2075 17.3013 15.4754C17.5692 15.7433 17.9325 15.8938 18.3114 15.8938H22.3286V19.911C22.3286 20.2898 22.4791 20.6532 22.747 20.9211C23.0149 21.189 23.3783 21.3395 23.7571 21.3395H28.4C28.7789 21.3395 29.1422 21.189 29.4102 20.9211C29.6781 20.6532 29.8286 20.2898 29.8286 19.911V15.8938H33.8457C34.2246 15.8938 34.588 15.7433 34.8559 15.4754C35.1238 15.2075 35.2743 14.8441 35.2743 14.4652V9.82238C35.2743 9.4435 35.1238 9.08014 34.8559 8.81223C34.588 8.54432 34.2246 8.39381 33.8457 8.39381H29.8286V4.37095C29.8286 3.99207 29.6781 3.62871 29.4102 3.3608C29.1422 3.09289 28.7789 2.94238 28.4 2.94238L23.7571 2.94524Z" stroke="black" stroke-width="2" stroke-linecap="round" stroke-linejoin="round"/>
<path d="M10.2371 27.9456L12.38 30.0884C12.6614 30.3699 12.9955 30.5931 13.3632 30.7454C13.7308 30.8977 14.1249 30.976 14.5229 30.976C14.9208 30.976 15.3149 30.8977 15.6826 30.7454C16.0502 30.5931 16.3843 30.3699 16.6657 30.0884C16.9471 29.807 17.1703 29.473 17.3226 29.1053C17.4749 28.7376 17.5533 28.3436 17.5533 27.9456C17.5533 27.5476 17.4749 27.1536 17.3226 26.7859C17.1703 26.4182 16.9471 26.0841 16.6657 25.8027L13.34 22.477C12.2686 21.4053 10.8154 20.8031 9.3 20.8027H1.66571" stroke="black" stroke-width="2" stroke-linecap="round" stroke-linejoin="round"/>
</svg>
