<?xml version="1.0" encoding="utf-8"?>
<!-- Generator: Adobe Illustrator 27.6.1, SVG Export Plug-In . SVG Version: 6.00 Build 0)  -->
<svg version="1.1" id="Layer_1" xmlns="http://www.w3.org/2000/svg" xmlns:xlink="http://www.w3.org/1999/xlink" x="0px" y="0px"
	 viewBox="0 0 101.3 35" style="enable-background:new 0 0 101.3 35;" xml:space="preserve">
<style type="text/css">
	.st0{fill:#FFFFFF;}
	.st1{fill:#2B1649;}
</style>
<g>
	<g id="Layer_2_00000075123744626993654870000006095563611922149512_">
		<path class="st0" d="M12.3,11.6c1,1.1,1.6,2.6,1.6,4.7S13.4,20,12.3,21c-1,1.1-2.4,1.6-4.4,1.6H4.5v5.9H0.9V10.1h7
			C9.8,10.1,11.2,10.6,12.3,11.6z M10.4,16.3c0-2-0.9-3.1-2.5-3.1H4.5v6h3.3c0.9,0,1.5-0.3,1.9-0.7C10.1,18.2,10.4,17.4,10.4,16.3z"
			/>
	</g>
	<g id="Layer_4">
		<path class="st0" d="M39.7,13.3h-4.8v15.2h-3.6V13.3h-4.8v-3.2h13.1V13.3z"/>
	</g>
	<g id="Layer_5">
		<path class="st0" d="M55.6,13.3h-4.8v15.2h-3.6V13.3h-4.8v-3.2h13.1C55.6,10.1,55.6,13.3,55.6,13.3z"/>
	</g>
	<g id="Layer_6">
		<polygon class="st0" points="70.5,13.4 70.5,10.1 58.8,10.1 58.8,25.2 58.8,28.4 62.3,28.4 70.5,28.4 70.5,25.2 62.3,25.2 
			62.2,20.9 67.8,20.9 68.1,17.7 62.3,17.7 62.3,13.4 		"/>
	</g>
	<g id="Layer_1_00000080899185872835330950000011730187974220734874_">
		<path class="st0" d="M87.4,17.4l-3.3,6.9c-0.4,0.9-1,1.4-1.7,1.4c-0.7,0-1.3-0.5-1.7-1.4l-3.3-6.9v11.1h-3.6V10.1h3.5l5.1,10.6
			l5.1-10.6H91v18.3h-3.5L87.4,17.4L87.4,17.4z"/>
		<g>
			<path class="st0" d="M92.8,8.4c0-2.2,1.6-4,3.9-4s3.9,1.7,3.9,4s-1.6,4-3.9,4C94.3,12.4,92.8,10.7,92.8,8.4z M93.4,8.4
				c0,1.9,1.2,3.4,3.1,3.4s3.4-1.3,3.4-3.3c0-1.9-1.5-3.4-3.4-3.4C94.6,5.1,93.4,6.5,93.4,8.4z M97.2,8.9l1.1,1.7h-1l-1-1.7h-0.4
				v1.7H95V6.4h1.7c0.9,0,1.4,0.5,1.4,1.2C98.2,8.2,97.8,8.7,97.2,8.9z M95.8,7.1v1.1h0.9c0.3,0,0.6-0.2,0.6-0.6
				c0-0.4-0.3-0.6-0.6-0.6L95.8,7.1z"/>
		</g>
	</g>
	<g id="Layer_7">
		<g>
			<path class="st1" d="M96.6,24.8c0.3,0.3,0.4,0.8,0.4,1.7c0,0.9-0.1,1.4-0.4,1.7c-0.3,0.3-0.9,0.4-1.7,0.4c-0.9,0-1.4-0.2-1.6-0.5
				c-0.3-0.3-0.4-0.8-0.4-1.7c0-0.9,0.1-1.4,0.4-1.7c0.3-0.2,0.8-0.4,1.6-0.4C95.8,24.3,96.2,24.6,96.6,24.8z"/>
		</g>
	</g>
	<path class="st1" d="M16.8,28.6L21,15l4,13.6h3.7l-5.7-17c-0.6-1.9-3.3-1.9-3.9,0l-5.9,17L16.8,28.6z"/>
</g>
</svg>
