<?xml version="1.0" encoding="UTF-8"?>
<svg id="Layer_3" data-name="Layer 3" xmlns="http://www.w3.org/2000/svg" viewBox="0 0 116.68 42">
  <g>
    <path d="M14.61,11.19c1.2,1.24,1.8,3,1.8,5.38s-.6,4.15-1.8,5.38c-1.2,1.24-2.83,1.85-4.98,1.85h-3.95v6.71H1.64V9.41h7.98c2.14,0,3.78.62,4.98,1.76h.01ZM12.38,16.57c0-2.38-1.03-3.53-2.92-3.53h-3.78v6.89h3.7c1.03,0,1.72-.35,2.23-.79s.77-1.33.77-2.56Z" fill="#fff"/>
    <path d="M26.47,10.48c-.18-.71-.51-1.24-.77-1.41s-.69-.35-1.2-.35-.95.18-1.37.44c-.43.18-.69.71-1.03,1.33l-6.44,19.24h4.21l1.11-3.61h.08v-.09h-.08l3.52-11.74,3.35,11.74h0v.09h0l1.11,3.61h4.21l-6.69-19.24h-.01Z" fill="#2b1649"/>
    <path d="M45.87,13.04h-5.5v17.39h-4.04V13.04h-5.41v-3.61h14.94s0,3.61,0,3.61Z" fill="#fff"/>
    <path d="M64.07,13.04h-5.5v17.39h-4.04V13.04h-5.41v-3.61h14.94v3.61Z" fill="#fff"/>
    <polygon points="80.98 13.13 80.98 9.41 67.59 9.41 67.59 26.72 67.59 30.43 71.54 30.43 80.98 30.43 80.98 26.72 71.56 26.71 71.57 21.78 77.81 21.78 78.15 18.07 71.54 18.07 71.54 13.13 80.98 13.13" fill="#fff"/>
    <path d="M100.22,17.89l-3.7,7.95c-.51,1.06-1.2,1.59-1.98,1.59s-1.54-.53-1.98-1.68l-3.7-7.95v12.72h-4.04V9.41h3.95l5.84,12.18,5.76-12.18h3.95v21h-4.04l-.08-12.53h0Z" fill="#fff"/>
    <path d="M110.61,25.57c.34.35.43.97.43,1.95,0,1.06-.08,1.68-.43,1.95-.34.35-.95.53-1.88.53-1.03,0-1.63-.18-1.88-.53-.34-.35-.51-.97-.51-1.95,0-1.06.18-1.68.51-1.95s.95-.44,1.88-.44c.95.09,1.54.18,1.88.44Z" fill="#2b1649"/>
    <path d="M106.33,7.48c0-2.6,1.82-4.58,4.36-4.58s4.36,1.98,4.36,4.58-1.82,4.58-4.36,4.58-4.36-1.87-4.36-4.58ZM107.04,7.48c0,2.18,1.42,3.85,3.54,3.85s3.54-1.57,3.54-3.85-1.42-3.85-3.54-3.85c-2.13.1-3.54,1.67-3.54,3.85ZM111.4,7.99l1.32,1.98h-1.11l-1.21-1.98h-.5v1.98h-.92v-4.89h2.03c1.01,0,1.62.53,1.62,1.46-.1.73-.5,1.25-1.21,1.46h0ZM109.88,5.91v1.25h1.01c.4,0,.71-.21.71-.63s-.31-.63-.71-.63h-1.01Z" fill="#fff"/>
  </g>
  <g>
    <path d="M5.61,33.69v4.15h-.68v-2.96l-1.26,2.09h-.09l-1.26-2.09v2.97h-.68v-4.15h.74l1.25,2.08,1.25-2.08h.74Z" fill="#fff"/>
    <path d="M8.55,34.87h.64v2.97h-.64v-.38c-.19.31-.5.46-.92.46-.34,0-.61-.11-.82-.33-.21-.21-.31-.51-.31-.9v-1.83h.64v1.76c0,.22.06.4.18.51s.28.18.48.18c.22,0,.41-.07.54-.21s.2-.35.2-.64c0,0,0-1.59,0-1.59Z" fill="#fff"/>
    <path d="M10.1,37.84v-4.33h.64v4.33h-.64Z" fill="#fff"/>
    <path d="M13.29,35.49h-.74v1.42c0,.13.03.21.09.27s.14.09.25.09h.41v.58c-.49.06-.84.02-1.05-.13-.21-.15-.32-.41-.32-.8v-1.42h-.54v-.62h.54v-.64l.64-.19v.83h.74v.62h-.01Z" fill="#fff"/>
    <path d="M14.65,34.31c-.09.09-.18.12-.29.12s-.2-.04-.29-.12c-.09-.09-.12-.18-.12-.29s.04-.2.12-.29.17-.12.29-.12.21.04.29.12c.07.09.12.18.12.29s-.04.2-.12.29ZM14.05,37.84v-2.97h.64v2.97h-.64Z" fill="#fff"/>
    <path d="M17.15,34.8c.34,0,.61.11.82.33.21.21.31.51.31.9v1.83h-.64v-1.76c0-.22-.06-.4-.18-.51s-.28-.18-.48-.18c-.22,0-.41.07-.54.21-.14.14-.2.35-.2.64v1.59h-.64v-2.97h.64v.38c.19-.31.5-.46.92-.46Z" fill="#fff"/>
    <path d="M21.47,34.87h.64v2.97h-.64v-.43c-.23.33-.59.5-1.04.5-.41,0-.75-.15-1.04-.46-.29-.3-.43-.67-.43-1.11s.14-.81.43-1.11c.29-.3.63-.45,1.04-.45.45,0,.79.17,1.04.5v-.42ZM19.87,37.04c.18.18.4.27.66.27s.49-.09.66-.27c.18-.18.27-.41.27-.68s-.09-.5-.27-.68-.4-.27-.66-.27-.49.09-.66.27-.27.41-.27.68.09.5.27.68Z" fill="#fff"/>
    <path d="M24.68,35.49h-.74v1.42c0,.13.03.21.09.27s.14.09.25.09h.41v.58c-.49.06-.84.02-1.05-.13-.21-.15-.32-.41-.32-.8v-1.42h-.54v-.62h.54v-.64l.64-.19v.83h.74v.62h-.01Z" fill="#fff"/>
    <path d="M26.03,34.31c-.09.09-.18.12-.29.12s-.2-.04-.29-.12c-.09-.09-.12-.18-.12-.29s.04-.2.12-.29.17-.12.29-.12.21.04.29.12c.07.09.12.18.12.29s-.04.2-.12.29ZM25.42,37.84v-2.97h.64v2.97h-.64Z" fill="#fff"/>
    <path d="M28.36,37.92c-.44,0-.8-.15-1.1-.45s-.46-.67-.46-1.11.15-.81.46-1.11.67-.45,1.1-.45.8.15,1.11.45.45.67.45,1.11-.15.81-.45,1.11-.67.45-1.11.45ZM27.71,37.03c.18.18.4.27.65.27s.48-.09.65-.27c.18-.18.27-.41.27-.67s-.09-.49-.27-.67-.4-.27-.65-.27-.48.09-.65.27-.27.41-.27.67.09.49.27.67Z" fill="#fff"/>
    <path d="M32.22,34.8c.34,0,.61.11.82.33.21.21.31.51.31.9v1.83h-.64v-1.76c0-.22-.06-.4-.18-.51-.12-.12-.28-.18-.48-.18-.22,0-.41.07-.54.21-.14.14-.2.35-.2.64v1.59h-.64v-2.97h.64v.38c.19-.31.5-.46.92-.46Z" fill="#fff"/>
    <path d="M36.55,34.87h.64v2.97h-.64v-.43c-.23.33-.59.5-1.04.5-.41,0-.75-.15-1.04-.46-.29-.3-.43-.67-.43-1.11s.14-.81.43-1.11c.29-.3.63-.45,1.04-.45.45,0,.79.17,1.04.5v-.42ZM34.95,37.04c.18.18.4.27.66.27s.49-.09.66-.27c.18-.18.27-.41.27-.68s-.09-.5-.27-.68-.4-.27-.66-.27-.49.09-.66.27-.27.41-.27.68.09.5.27.68Z" fill="#fff"/>
    <path d="M38.11,37.84v-4.33h.64v4.33h-.64Z" fill="#fff"/>
    <path d="M44.94,37.92c-.62,0-1.14-.2-1.55-.62-.41-.42-.62-.93-.62-1.54s.2-1.12.62-1.54c.41-.42.93-.62,1.55-.62.37,0,.72.09,1.04.27.32.18.57.42.74.73l-.59.34c-.11-.2-.27-.37-.48-.49s-.45-.18-.7-.18c-.44,0-.8.14-1.07.42-.28.28-.41.64-.41,1.07s.14.79.41,1.07c.28.28.63.43,1.07.43.26,0,.49-.06.7-.18.21-.12.37-.29.48-.49l.59.34c-.17.31-.42.54-.74.73-.32.18-.66.27-1.05.27h.01Z" fill="#fff"/>
    <path d="M48.79,37.92c-.44,0-.8-.15-1.1-.45s-.46-.67-.46-1.11.15-.81.46-1.11.67-.45,1.1-.45.8.15,1.11.45.45.67.45,1.11-.15.81-.45,1.11-.67.45-1.11.45ZM48.13,37.03c.18.18.4.27.65.27s.48-.09.65-.27c.18-.18.27-.41.27-.67s-.09-.49-.27-.67-.4-.27-.65-.27-.48.09-.65.27-.27.41-.27.67.09.49.27.67Z" fill="#fff"/>
    <path d="M52.65,34.8c.34,0,.61.11.82.33.21.21.31.51.31.9v1.83h-.64v-1.76c0-.22-.06-.4-.18-.51-.12-.12-.28-.18-.48-.18-.22,0-.41.07-.54.21-.14.14-.2.35-.2.64v1.59h-.64v-2.97h.64v.38c.19-.31.5-.46.92-.46Z" fill="#fff"/>
    <path d="M56.99,34.87h.63v2.83c0,.45-.15.8-.45,1.04s-.65.36-1.08.36c-.68,0-1.14-.23-1.4-.72l.54-.32c.15.31.44.46.86.46.28,0,.49-.07.65-.21s.23-.34.23-.6v-.36c-.23.34-.59.51-1.02.51s-.77-.15-1.06-.45-.43-.66-.43-1.08.14-.78.43-1.08.64-.45,1.06-.45c.45,0,.79.17,1.02.51v-.44h0ZM55.38,36.99c.18.18.41.27.67.27s.49-.09.67-.27c.18-.18.27-.4.27-.66s-.09-.49-.27-.66c-.18-.18-.41-.27-.67-.27s-.49.09-.67.27c-.18.18-.27.4-.27.66s.09.49.27.66Z" fill="#fff"/>
    <path d="M58.53,37.84v-4.33h.64v4.33h-.64Z" fill="#fff"/>
    <path d="M61.47,37.92c-.44,0-.8-.15-1.1-.45s-.46-.67-.46-1.11.15-.81.46-1.11.67-.45,1.1-.45.8.15,1.11.45.45.67.45,1.11-.15.81-.45,1.11-.67.45-1.11.45ZM60.81,37.03c.18.18.4.27.65.27s.48-.09.65-.27c.18-.18.27-.41.27-.67s-.09-.49-.27-.67-.4-.27-.65-.27-.48.09-.65.27-.27.41-.27.67.09.49.27.67Z" fill="#fff"/>
    <path d="M67,34.8c.33,0,.61.11.81.33.2.21.31.51.31.88v1.84h-.64v-1.8c0-.2-.05-.36-.15-.48-.11-.12-.25-.17-.42-.17-.19,0-.35.06-.47.19s-.17.33-.17.59v1.67h-.64v-1.8c0-.2-.05-.36-.15-.48s-.23-.17-.41-.17c-.19,0-.35.06-.47.2-.12.13-.18.33-.18.59v1.67h-.64v-2.97h.64v.35c.19-.29.47-.44.84-.44s.66.16.83.47c.19-.31.5-.47.91-.47v.02Z" fill="#fff"/>
    <path d="M69.47,36.64c.04.22.16.4.32.52.17.12.37.18.62.18.34,0,.59-.13.76-.36l.52.31c-.29.43-.73.65-1.29.65-.48,0-.86-.15-1.16-.44-.3-.3-.45-.67-.45-1.12s.15-.81.44-1.11c.29-.3.66-.45,1.12-.45s.79.15,1.07.46.42.67.42,1.11c0,.06,0,.16-.02.27h-2.35v-.02ZM69.46,36.11h1.74c-.04-.25-.14-.43-.3-.54s-.34-.18-.54-.18c-.23,0-.44.06-.59.19-.16.13-.26.31-.3.53h-.01Z" fill="#fff"/>
    <path d="M73.21,35.38c.16-.36.46-.56.91-.56v.69c-.25-.02-.46.04-.64.17s-.27.35-.27.65v1.49h-.64v-2.97h.64v.5h0Z" fill="#fff"/>
    <path d="M76.97,34.87h.64v2.97h-.64v-.43c-.23.33-.59.5-1.04.5-.41,0-.75-.15-1.04-.46-.29-.3-.43-.67-.43-1.11s.14-.81.43-1.11c.29-.3.63-.45,1.04-.45.45,0,.79.17,1.04.5v-.42ZM75.37,37.04c.18.18.4.27.66.27s.49-.09.66-.27c.18-.18.27-.41.27-.68s-.09-.5-.27-.68-.4-.27-.66-.27-.49.09-.66.27-.27.41-.27.68.09.5.27.68Z" fill="#fff"/>
    <path d="M80.17,35.49h-.74v1.42c0,.13.03.21.09.27s.14.09.25.09h.41v.58c-.49.06-.84.02-1.05-.13-.21-.15-.32-.41-.32-.8v-1.42h-.54v-.62h.54v-.64l.64-.19v.83h.74v.62h-.01Z" fill="#fff"/>
    <path d="M81.3,36.64c.04.22.16.4.32.52.17.12.37.18.62.18.34,0,.59-.13.76-.36l.52.31c-.29.43-.73.65-1.29.65-.48,0-.86-.15-1.16-.44-.3-.3-.45-.67-.45-1.12s.15-.81.44-1.11c.29-.3.66-.45,1.12-.45s.79.15,1.07.46.42.67.42,1.11c0,.06,0,.16-.02.27h-2.35v-.02ZM81.29,36.11h1.74c-.04-.25-.14-.43-.3-.54s-.34-.18-.54-.18c-.23,0-.44.06-.59.19-.16.13-.26.31-.3.53h-.01Z" fill="#fff"/>
    <path d="M89.69,37.92c-.62,0-1.14-.2-1.55-.62-.41-.42-.62-.93-.62-1.54s.2-1.12.62-1.54c.41-.42.93-.62,1.55-.62.37,0,.72.09,1.04.27s.57.42.74.73l-.59.34c-.11-.2-.27-.37-.48-.49s-.45-.18-.7-.18c-.44,0-.8.14-1.07.42-.28.28-.41.64-.41,1.07s.14.79.41,1.07c.28.28.63.43,1.07.43.26,0,.49-.06.7-.18.21-.12.37-.29.48-.49l.59.34c-.17.31-.42.54-.74.73-.32.18-.66.27-1.05.27h.01Z" fill="#fff"/>
    <path d="M93.55,37.92c-.44,0-.8-.15-1.1-.45s-.46-.67-.46-1.11.15-.81.46-1.11.67-.45,1.1-.45.8.15,1.11.45.45.67.45,1.11-.15.81-.45,1.11-.67.45-1.11.45ZM92.88,37.03c.18.18.4.27.65.27s.48-.09.65-.27c.18-.18.27-.41.27-.67s-.09-.49-.27-.67-.4-.27-.65-.27-.48.09-.65.27-.27.41-.27.67.09.49.27.67Z" fill="#fff"/>
    <path d="M99.08,34.8c.33,0,.61.11.81.33.2.21.31.51.31.88v1.84h-.64v-1.8c0-.2-.05-.36-.15-.48-.11-.12-.25-.17-.42-.17-.19,0-.35.06-.47.19s-.17.33-.17.59v1.67h-.64v-1.8c0-.2-.05-.36-.15-.48s-.23-.17-.41-.17c-.19,0-.35.06-.47.2-.12.13-.18.33-.18.59v1.67h-.64v-2.97h.64v.35c.19-.29.47-.44.84-.44s.66.16.83.47c.19-.31.5-.47.91-.47v.02Z" fill="#fff"/>
    <path d="M102.72,34.8c.41,0,.75.15,1.04.46.29.3.43.67.43,1.11s-.14.81-.43,1.11c-.29.3-.63.45-1.04.45-.45,0-.79-.17-1.04-.5v1.61h-.64v-4.15h.64v.43c.23-.33.59-.5,1.04-.5h0ZM101.95,37.04c.18.18.4.27.66.27s.49-.09.66-.27c.18-.18.27-.41.27-.68s-.09-.5-.27-.68-.4-.27-.66-.27-.49.09-.66.27-.27.41-.27.68.09.5.27.68Z" fill="#fff"/>
    <path d="M107.28,34.87h.64v2.97h-.64v-.43c-.23.33-.59.5-1.04.5-.41,0-.75-.15-1.04-.46-.29-.3-.43-.67-.43-1.11s.14-.81.43-1.11c.29-.3.63-.45,1.04-.45.45,0,.79.17,1.04.5v-.42ZM105.67,37.04c.18.18.4.27.66.27s.49-.09.66-.27c.18-.18.27-.41.27-.68s-.09-.5-.27-.68-.4-.27-.66-.27-.49.09-.66.27-.27.41-.27.68.09.5.27.68Z" fill="#fff"/>
    <path d="M110.38,34.8c.34,0,.61.11.82.33.21.21.31.51.31.9v1.83h-.64v-1.76c0-.22-.06-.4-.18-.51s-.28-.18-.48-.18c-.22,0-.41.07-.54.21-.14.14-.2.35-.2.64v1.59h-.64v-2.97h.64v.38c.19-.31.5-.46.92-.46Z" fill="#fff"/>
    <path d="M114.3,34.87h.68l-1.13,3.06c-.29.77-.77,1.13-1.44,1.09v-.6c.2.01.36-.03.48-.13s.22-.25.3-.46l.03-.06-1.25-2.91h.69l.88,2.16.76-2.16h0Z" fill="#fff"/>
  </g>
</svg>