<svg width="40" height="40" viewBox="0 0 40 40" fill="none" xmlns="http://www.w3.org/2000/svg">
<path d="M23.3667 36.5381L10.6733 32.8381V34.9998H4.00667V21.4098H14.6283L26.8917 25.8981V28.5898H35V32.9481L23.3667 36.5381ZM5.67167 33.3331H9.005V23.0765H5.67167V33.3331ZM23.28 34.7698L33.2933 31.7181V30.2565H21.7583L16.5833 28.5698L17.1333 26.9748L22.01 28.5898H25.225V27.0565L14.365 23.0765H10.6733V31.0898L23.28 34.7698ZM31.6667 24.6148V12.9481L22.5 6.53814L13.3333 12.9481V17.4348H11.6667V12.1498L22.5 4.4248L33.3333 12.1481V24.6148H31.6667ZM23.4933 14.0698H24.84V12.7231H23.4933V14.0698ZM20.16 14.0698H21.5067V12.7231H20.16V14.0698ZM23.4933 17.4031H24.84V16.0565H23.4933V17.4031ZM20.16 17.4031H21.5067V16.0565H20.16V17.4031Z" fill="black"/>
</svg>
